<svg width="620" height="1470" viewBox="0 0 620 1470" class="keymap" xmlns="http://www.w3.org/2000/svg" xmlns:xlink="http://www.w3.org/1999/xlink">
<style>/* inherit to force styles through use tags */
svg path {
    fill: inherit;
}

/* font and background color specifications */
svg.keymap {
    font-family: SFMono-Regular,Consolas,Liberation Mono,Menlo,monospace;
    font-size: 14px;
    font-kerning: normal;
    text-rendering: optimizeLegibility;
    fill: #24292e;
}

/* default key styling */
rect.key {
    fill: #f6f8fa;
}

rect.key, rect.combo {
    stroke: #c9cccf;
    stroke-width: 1;
}

/* default key side styling, only used is draw_key_sides is set */
rect.side {
    filter: brightness(90%);
}

/* color accent for combo boxes */
rect.combo, rect.combo-separate {
    fill: #cdf;
}

/* color accent for held keys */
rect.held, rect.combo.held {
    fill: #fdd;
}

/* color accent for ghost (optional) keys */
rect.ghost, rect.combo.ghost {
    stroke-dasharray: 4, 4;
    stroke-width: 2;
}

text {
    text-anchor: middle;
    dominant-baseline: middle;
}

/* styling for layer labels */
text.label {
    font-weight: bold;
    text-anchor: start;
    stroke: white;
    stroke-width: 4;
    paint-order: stroke;
}

/* styling for optional footer */
text.footer {
    text-anchor: end;
    dominant-baseline: auto;
    stroke: white;
    stroke-width: 4;
    paint-order: stroke;
}

/* styling for combo tap, and key non-tap label text */
text.combo, text.hold, text.shifted, text.left, text.right, text.tl, text.tr, text.bl, text.br {
    font-size: 11px;
}

text.hold, text.bl, text.br {
    text-anchor: middle;
    dominant-baseline: auto;
}

text.shifted, text.tl, text.tr {
    text-anchor: middle;
    dominant-baseline: hanging;
}

text.left, text.tl, text.bl {
    text-anchor: start;
}

text.right, text.tr, text.br {
    text-anchor: end;
}

text.layer-activator {
    text-decoration: underline;
}

/* styling for hold/shifted label text in combo box */
text.combo.hold, text.combo.shifted, text.combo.left, text.combo.right {
    font-size: 8px;
}

/* lighter symbol for transparent keys */
text.trans {
    fill: #7b7e81;
}

/* styling for combo dendrons */
path.combo {
    stroke-width: 1;
    stroke: gray;
    fill: none;
}

/* Start Tabler Icons Cleanup */
/* cannot use height/width with glyphs */
.icon-tabler > path {
    fill: inherit;
    stroke: inherit;
    stroke-width: 2;
}
/* hide tabler's default box */
.icon-tabler > path[stroke="none"][fill="none"] {
    visibility: hidden;
}
/* End Tabler Icons Cleanup */
</style>
<g transform="translate(30, 0)" class="layer-default">
<text x="0" y="28" class="label" id="default">default:</text>
<g transform="translate(0, 56)">
<g transform="translate(28, 46)" class="key keypos-0">
<rect rx="6" ry="6" x="-26" y="-26" width="52" height="52" class="key"/>
<text x="0" y="0" class="key tap">R</text>
<text x="0" y="24" class="key hold">LGUI</text>
</g>
<g transform="translate(84, 28)" class="key keypos-1">
<rect rx="6" ry="6" x="-26" y="-26" width="52" height="52" class="key"/>
<text x="0" y="0" class="key tap">S</text>
<text x="0" y="24" class="key hold">LSHFT</text>
</g>
<g transform="translate(140, 44)" class="key keypos-2">
<rect rx="6" ry="6" x="-26" y="-26" width="52" height="52" class="key"/>
<text x="0" y="0" class="key tap">T</text>
<text x="0" y="24" class="key hold">LALT</text>
</g>
<g transform="translate(196, 52)" class="key keypos-3">
<rect rx="6" ry="6" x="-26" y="-26" width="52" height="52" class="key"/>
<text x="0" y="0" class="key tap">H</text>
<text x="0" y="24" class="key hold">LCTRL</text>
</g>
<g transform="translate(364, 52)" class="key keypos-4">
<rect rx="6" ry="6" x="-26" y="-26" width="52" height="52" class="key"/>
<text x="0" y="0" class="key tap">N</text>
<text x="0" y="24" class="key hold">RCTRL</text>
</g>
<g transform="translate(420, 44)" class="key keypos-5">
<rect rx="6" ry="6" x="-26" y="-26" width="52" height="52" class="key"/>
<text x="0" y="0" class="key tap">A</text>
<text x="0" y="24" class="key hold">LALT</text>
</g>
<g transform="translate(476, 28)" class="key keypos-6">
<rect rx="6" ry="6" x="-26" y="-26" width="52" height="52" class="key"/>
<text x="0" y="0" class="key tap">I</text>
<text x="0" y="24" class="key hold">RSHFT</text>
</g>
<g transform="translate(532, 46)" class="key keypos-7">
<rect rx="6" ry="6" x="-26" y="-26" width="52" height="52" class="key"/>
<text x="0" y="0" class="key tap">O</text>
<text x="0" y="24" class="key hold">RGUI</text>
</g>
<g transform="translate(28, 101)" class="key keypos-8">
<rect rx="6" ry="6" x="-26" y="-26" width="52" height="52" class="key"/>
<text x="0" y="0" class="key tap">V</text>
<a href="#zmk">
<text x="0" y="24" class="key hold layer-activator">zmk</text>
</a></g>
<g transform="translate(84, 84)" class="key keypos-9">
<rect rx="6" ry="6" x="-26" y="-26" width="52" height="52" class="key"/>
<text x="0" y="0" class="key tap">C</text>
</g>
<g transform="translate(140, 100)" class="key keypos-10">
<rect rx="6" ry="6" x="-26" y="-26" width="52" height="52" class="key"/>
<text x="0" y="0" class="key tap">D</text>
</g>
<g transform="translate(196, 108)" class="key keypos-11">
<rect rx="6" ry="6" x="-26" y="-26" width="52" height="52" class="key"/>
<text x="0" y="0" class="key tap">M</text>
</g>
<g transform="translate(364, 108)" class="key keypos-12">
<rect rx="6" ry="6" x="-26" y="-26" width="52" height="52" class="key"/>
<text x="0" y="0" class="key tap">L</text>
</g>
<g transform="translate(420, 100)" class="key keypos-13">
<rect rx="6" ry="6" x="-26" y="-26" width="52" height="52" class="key"/>
<text x="0" y="0" class="key tap">U</text>
</g>
<g transform="translate(476, 84)" class="key keypos-14">
<rect rx="6" ry="6" x="-26" y="-26" width="52" height="52" class="key"/>
<text x="0" y="0" class="key tap">Y</text>
</g>
<g transform="translate(532, 101)" class="key keypos-15">
<rect rx="6" ry="6" x="-26" y="-26" width="52" height="52" class="key"/>
<text x="0" y="0" class="key tap">&#x27;</text>
<a href="#zmk">
<text x="0" y="24" class="key hold layer-activator">zmk</text>
</a></g>
<g transform="translate(165, 165) rotate(15.0)" class="key keypos-16">
<rect rx="6" ry="6" x="-26" y="-26" width="52" height="52" class="key"/>
<text x="0" y="0" class="key tap">BSPC</text>
<text x="0" y="24" class="key hold">LSHFT</text>
</g>
<g transform="translate(223, 189) rotate(30.0)" class="key keypos-17">
<rect rx="6" ry="6" x="-26" y="-26" width="52" height="52" class="key"/>
<text x="0" y="0" class="key tap">SPACE</text>
<a href="#sym">
<text x="0" y="24" class="key hold layer-activator">sym</text>
</a></g>
<g transform="translate(337, 189) rotate(-30.0)" class="key keypos-18">
<rect rx="6" ry="6" x="-26" y="-26" width="52" height="52" class="key"/>
<text x="0" y="0" class="key tap">E</text>
<a href="#num">
<text x="0" y="24" class="key hold layer-activator">num</text>
</a></g>
<g transform="translate(395, 165) rotate(-15.0)" class="key keypos-19">
<rect rx="6" ry="6" x="-26" y="-26" width="52" height="52" class="key"/>
<text x="0" y="0" class="key tap">RET</text>
<a href="#nav">
<text x="0" y="24" class="key hold layer-activator">nav</text>
</a></g>
<g class="combo combopos-0">
<path d="M112,49 l-65,-2" class="combo"/>
<path d="M112,49 l65,2" class="combo"/>
<rect rx="6" ry="6" x="98" y="36" width="28" height="26" class="combo"/>
<text x="112" y="49" class="combo tap">ESC</text>
</g>
<g class="combo combopos-1">
<path d="M112,104 l-65,-2" class="combo"/>
<path d="M112,104 l65,2" class="combo"/>
<rect rx="6" ry="6" x="98" y="91" width="28" height="26" class="combo"/>
<text x="112" y="104" class="combo tap">DEL</text>
</g>
<g class="combo combopos-2">
<path d="M140,96 l-38,-8" class="combo"/>
<path d="M140,96 l38,8" class="combo"/>
<rect rx="6" ry="6" x="126" y="83" width="28" height="26" class="combo"/>
<text x="140" y="96" class="combo tap">TAB</text>
</g>
<g class="combo combopos-3">
<path d="M420,96 l-38,8" class="combo"/>
<path d="M420,96 l38,-8" class="combo"/>
<rect rx="6" ry="6" x="406" y="83" width="28" height="26" class="combo"/>
<text x="420" y="96" class="combo tap">_</text>
</g>
<g class="combo combopos-4">
<rect rx="6" ry="6" x="70" y="43" width="28" height="26" class="combo"/>
<text x="84" y="56" class="combo tap">{</text>
</g>
<g class="combo combopos-5">
<rect rx="6" ry="6" x="182" y="67" width="28" height="26" class="combo"/>
<text x="196" y="80" class="combo tap">(</text>
</g>
<g class="combo combopos-6">
<rect rx="6" ry="6" x="126" y="59" width="28" height="26" class="combo"/>
<text x="140" y="72" class="combo tap">[</text>
</g>
<g class="combo combopos-7">
<rect rx="6" ry="6" x="462" y="43" width="28" height="26" class="combo"/>
<text x="476" y="56" class="combo tap">}</text>
</g>
<g class="combo combopos-8">
<rect rx="6" ry="6" x="350" y="67" width="28" height="26" class="combo"/>
<text x="364" y="80" class="combo tap">)</text>
</g>
<g class="combo combopos-9">
<rect rx="6" ry="6" x="406" y="59" width="28" height="26" class="combo"/>
<text x="420" y="72" class="combo tap">]</text>
</g>
<g class="combo combopos-10">
<rect rx="6" ry="6" x="14" y="61" width="28" height="26" class="combo"/>
<text x="28" y="74" class="combo tap">&lt;</text>
</g>
<g class="combo combopos-11">
<rect rx="6" ry="6" x="518" y="61" width="28" height="26" class="combo"/>
<text x="532" y="74" class="combo tap">&gt;</text>
</g>
<g class="combo combopos-12">
<rect rx="6" ry="6" x="42" y="24" width="28" height="26" class="combo"/>
<text x="56" y="37" class="combo tap">W</text>
</g>
<g class="combo combopos-13">
<rect rx="6" ry="6" x="98" y="23" width="28" height="26" class="combo"/>
<text x="112" y="36" class="combo tap">P</text>
</g>
<g class="combo combopos-14">
<rect rx="6" ry="6" x="154" y="35" width="28" height="26" class="combo"/>
<text x="168" y="48" class="combo tap">B</text>
</g>
<g class="combo combopos-15">
<path d="M280,52 l-65,0" class="combo"/>
<path d="M280,52 l65,0" class="combo"/>
<rect rx="6" ry="6" x="266" y="39" width="28" height="26" class="combo"/>
<text x="280" y="52" class="combo tap">F</text>
</g>
<g class="combo combopos-16">
<rect rx="6" ry="6" x="378" y="35" width="28" height="26" class="combo"/>
<text x="392" y="48" class="combo tap">Q</text>
</g>
<g class="combo combopos-17">
<rect rx="6" ry="6" x="434" y="23" width="28" height="26" class="combo"/>
<text x="448" y="36" class="combo tap">,</text>
</g>
<g class="combo combopos-18">
<rect rx="6" ry="6" x="490" y="24" width="28" height="26" class="combo"/>
<text x="504" y="37" class="combo tap">.</text>
</g>
<g class="combo combopos-19">
<rect rx="6" ry="6" x="98" y="79" width="28" height="26" class="combo"/>
<text x="112" y="92" class="combo tap">G</text>
</g>
<g class="combo combopos-20">
<rect rx="6" ry="6" x="154" y="91" width="28" height="26" class="combo"/>
<text x="168" y="104" class="combo tap">K</text>
</g>
<g class="combo combopos-21">
<path d="M280,108 l-65,0" class="combo"/>
<path d="M280,108 l65,0" class="combo"/>
<rect rx="6" ry="6" x="266" y="95" width="28" height="26" class="combo"/>
<text x="280" y="108" class="combo tap">J</text>
</g>
<g class="combo combopos-22">
<rect rx="6" ry="6" x="378" y="91" width="28" height="26" class="combo"/>
<text x="392" y="104" class="combo tap">X</text>
</g>
<g class="combo combopos-23">
<rect rx="6" ry="6" x="434" y="79" width="28" height="26" class="combo"/>
<text x="448" y="92" class="combo tap">Z</text>
</g>
<g class="combo combopos-24">
<path d="M280,44 l-121,0" class="combo"/>
<path d="M280,44 l121,0" class="combo"/>
<rect rx="6" ry="6" x="266" y="31" width="28" height="26" class="combo"/>
<text x="280" y="44" class="combo tap"><tspan style="font-size: 70%">&amp;caps_word</tspan></text>
</g>
</g>
</g>
<g transform="translate(30, 283)" class="layer-nav">
<text x="0" y="28" class="label" id="nav">nav:</text>
<g transform="translate(0, 56)">
<g transform="translate(28, 46)" class="key keypos-0">
<rect rx="6" ry="6" x="-26" y="-26" width="52" height="52" class="key"/>
<text x="0" y="0" class="key tap">F1</text>
</g>
<g transform="translate(84, 28)" class="key keypos-1">
<rect rx="6" ry="6" x="-26" y="-26" width="52" height="52" class="key"/>
<text x="0" y="0" class="key tap">F2</text>
</g>
<g transform="translate(140, 44)" class="key keypos-2">
<rect rx="6" ry="6" x="-26" y="-26" width="52" height="52" class="key"/>
<text x="0" y="0" class="key tap">F3</text>
</g>
<g transform="translate(196, 52)" class="key keypos-3">
<rect rx="6" ry="6" x="-26" y="-26" width="52" height="52" class="key"/>
<text x="0" y="0" class="key tap">F4</text>
</g>
<g transform="translate(364, 52)" class="key keypos-4">
<rect rx="6" ry="6" x="-26" y="-26" width="52" height="52" class="key"/>
<text x="0" y="0" class="key tap">HOME</text>
</g>
<g transform="translate(420, 44)" class="key keypos-5">
<rect rx="6" ry="6" x="-26" y="-26" width="52" height="52" class="key"/>
<text x="0" y="0" class="key tap">UP</text>
</g>
<g transform="translate(476, 28)" class="key keypos-6">
<rect rx="6" ry="6" x="-26" y="-26" width="52" height="52" class="key"/>
<text x="0" y="0" class="key tap">END</text>
</g>
<g transform="translate(532, 46)" class="key keypos-7">
<rect rx="6" ry="6" x="-26" y="-26" width="52" height="52" class="key"/>
<text x="0" y="0" class="key tap">
<tspan x="0" dy="-0.6em">VOL</tspan><tspan x="0" dy="1.2em">UP</tspan>
</text>
</g>
<g transform="translate(28, 101)" class="key keypos-8">
<rect rx="6" ry="6" x="-26" y="-26" width="52" height="52" class="key"/>
<text x="0" y="0" class="key tap">F5</text>
</g>
<g transform="translate(84, 84)" class="key keypos-9">
<rect rx="6" ry="6" x="-26" y="-26" width="52" height="52" class="key"/>
<text x="0" y="0" class="key tap">F6</text>
</g>
<g transform="translate(140, 100)" class="key keypos-10">
<rect rx="6" ry="6" x="-26" y="-26" width="52" height="52" class="key"/>
<text x="0" y="0" class="key tap">F7</text>
</g>
<g transform="translate(196, 108)" class="key keypos-11">
<rect rx="6" ry="6" x="-26" y="-26" width="52" height="52" class="key"/>
<text x="0" y="0" class="key tap">F8</text>
</g>
<g transform="translate(364, 108)" class="key keypos-12">
<rect rx="6" ry="6" x="-26" y="-26" width="52" height="52" class="key"/>
<text x="0" y="0" class="key tap">LEFT</text>
</g>
<g transform="translate(420, 100)" class="key keypos-13">
<rect rx="6" ry="6" x="-26" y="-26" width="52" height="52" class="key"/>
<text x="0" y="0" class="key tap">DOWN</text>
</g>
<g transform="translate(476, 84)" class="key keypos-14">
<rect rx="6" ry="6" x="-26" y="-26" width="52" height="52" class="key"/>
<text x="0" y="0" class="key tap">RIGHT</text>
</g>
<g transform="translate(532, 101)" class="key keypos-15">
<rect rx="6" ry="6" x="-26" y="-26" width="52" height="52" class="key"/>
<text x="0" y="0" class="key tap">
<tspan x="0" dy="-0.6em">VOL</tspan><tspan x="0" dy="1.2em">DN</tspan>
</text>
</g>
<g transform="translate(165, 165) rotate(15.0)" class="key trans keypos-16">
<rect rx="6" ry="6" x="-26" y="-26" width="52" height="52" class="key trans"/>
<text x="0" y="0" class="key trans tap">▽</text>
</g>
<g transform="translate(223, 189) rotate(30.0)" class="key trans keypos-17">
<rect rx="6" ry="6" x="-26" y="-26" width="52" height="52" class="key trans"/>
<text x="0" y="0" class="key trans tap">▽</text>
</g>
<g transform="translate(337, 189) rotate(-30.0)" class="key trans keypos-18">
<rect rx="6" ry="6" x="-26" y="-26" width="52" height="52" class="key trans"/>
<text x="0" y="0" class="key trans tap">▽</text>
</g>
<g transform="translate(395, 165) rotate(-15.0)" class="key held keypos-19">
<rect rx="6" ry="6" x="-26" y="-26" width="52" height="52" class="key held"/>
</g>
</g>
</g>
<g transform="translate(30, 566)" class="layer-num">
<text x="0" y="28" class="label" id="num">num:</text>
<g transform="translate(0, 56)">
<g transform="translate(28, 46)" class="key keypos-0">
<rect rx="6" ry="6" x="-26" y="-26" width="52" height="52" class="key"/>
<text x="0" y="0" class="key tap">@</text>
</g>
<g transform="translate(84, 28)" class="key keypos-1">
<rect rx="6" ry="6" x="-26" y="-26" width="52" height="52" class="key"/>
<text x="0" y="0" class="key tap">&quot;</text>
</g>
<g transform="translate(140, 44)" class="key keypos-2">
<rect rx="6" ry="6" x="-26" y="-26" width="52" height="52" class="key"/>
<text x="0" y="0" class="key tap">$</text>
</g>
<g transform="translate(196, 52)" class="key keypos-3">
<rect rx="6" ry="6" x="-26" y="-26" width="52" height="52" class="key"/>
<text x="0" y="0" class="key tap">%</text>
</g>
<g transform="translate(364, 52)" class="key keypos-4">
<rect rx="6" ry="6" x="-26" y="-26" width="52" height="52" class="key"/>
<text x="0" y="0" class="key tap">^</text>
</g>
<g transform="translate(420, 44)" class="key keypos-5">
<rect rx="6" ry="6" x="-26" y="-26" width="52" height="52" class="key"/>
<text x="0" y="0" class="key tap">&amp;</text>
</g>
<g transform="translate(476, 28)" class="key keypos-6">
<rect rx="6" ry="6" x="-26" y="-26" width="52" height="52" class="key"/>
<text x="0" y="0" class="key tap">*</text>
</g>
<g transform="translate(532, 46)" class="key keypos-7">
<rect rx="6" ry="6" x="-26" y="-26" width="52" height="52" class="key"/>
<text x="0" y="0" class="key tap">(</text>
</g>
<g transform="translate(28, 101)" class="key keypos-8">
<rect rx="6" ry="6" x="-26" y="-26" width="52" height="52" class="key"/>
<text x="0" y="0" class="key tap">2</text>
</g>
<g transform="translate(84, 84)" class="key keypos-9">
<rect rx="6" ry="6" x="-26" y="-26" width="52" height="52" class="key"/>
<text x="0" y="0" class="key tap">3</text>
</g>
<g transform="translate(140, 100)" class="key keypos-10">
<rect rx="6" ry="6" x="-26" y="-26" width="52" height="52" class="key"/>
<text x="0" y="0" class="key tap">4</text>
</g>
<g transform="translate(196, 108)" class="key keypos-11">
<rect rx="6" ry="6" x="-26" y="-26" width="52" height="52" class="key"/>
<text x="0" y="0" class="key tap">5</text>
</g>
<g transform="translate(364, 108)" class="key keypos-12">
<rect rx="6" ry="6" x="-26" y="-26" width="52" height="52" class="key"/>
<text x="0" y="0" class="key tap">6</text>
</g>
<g transform="translate(420, 100)" class="key keypos-13">
<rect rx="6" ry="6" x="-26" y="-26" width="52" height="52" class="key"/>
<text x="0" y="0" class="key tap">7</text>
</g>
<g transform="translate(476, 84)" class="key keypos-14">
<rect rx="6" ry="6" x="-26" y="-26" width="52" height="52" class="key"/>
<text x="0" y="0" class="key tap">8</text>
</g>
<g transform="translate(532, 101)" class="key keypos-15">
<rect rx="6" ry="6" x="-26" y="-26" width="52" height="52" class="key"/>
<text x="0" y="0" class="key tap">9</text>
</g>
<g transform="translate(165, 165) rotate(15.0)" class="key trans keypos-16">
<rect rx="6" ry="6" x="-26" y="-26" width="52" height="52" class="key trans"/>
<text x="0" y="0" class="key trans tap">▽</text>
</g>
<g transform="translate(223, 189) rotate(30.0)" class="key trans keypos-17">
<rect rx="6" ry="6" x="-26" y="-26" width="52" height="52" class="key trans"/>
<text x="0" y="0" class="key trans tap">▽</text>
</g>
<g transform="translate(337, 189) rotate(-30.0)" class="key held keypos-18">
<rect rx="6" ry="6" x="-26" y="-26" width="52" height="52" class="key held"/>
</g>
<g transform="translate(395, 165) rotate(-15.0)" class="key trans keypos-19">
<rect rx="6" ry="6" x="-26" y="-26" width="52" height="52" class="key trans"/>
<text x="0" y="0" class="key trans tap">▽</text>
</g>
<g class="combo combopos-0">
<path d="M112,49 l-65,-2" class="combo"/>
<path d="M112,49 l65,2" class="combo"/>
<rect rx="6" ry="6" x="98" y="36" width="28" height="26" class="combo"/>
<text x="112" y="49" class="combo tap">!</text>
</g>
<g class="combo combopos-1">
<path d="M448,49 l-65,2" class="combo"/>
<path d="M448,49 l65,-2" class="combo"/>
<rect rx="6" ry="6" x="434" y="36" width="28" height="26" class="combo"/>
<text x="448" y="49" class="combo tap">)</text>
</g>
<g class="combo combopos-2">
<path d="M112,104 l-65,-2" class="combo"/>
<path d="M112,104 l65,2" class="combo"/>
<rect rx="6" ry="6" x="98" y="91" width="28" height="26" class="combo"/>
<text x="112" y="104" class="combo tap">1</text>
</g>
<g class="combo combopos-3">
<path d="M448,104 l-65,2" class="combo"/>
<path d="M448,104 l65,-2" class="combo"/>
<rect rx="6" ry="6" x="434" y="91" width="28" height="26" class="combo"/>
<text x="448" y="104" class="combo tap">0</text>
</g>
</g>
</g>
<g transform="translate(30, 848)" class="layer-sym">
<text x="0" y="28" class="label" id="sym">sym:</text>
<g transform="translate(0, 56)">
<g transform="translate(28, 46)" class="key keypos-0">
<rect rx="6" ry="6" x="-26" y="-26" width="52" height="52" class="key"/>
<text x="0" y="0" class="key tap">!</text>
</g>
<g transform="translate(84, 28)" class="key keypos-1">
<rect rx="6" ry="6" x="-26" y="-26" width="52" height="52" class="key"/>
<text x="0" y="0" class="key tap">@</text>
</g>
<g transform="translate(140, 44)" class="key keypos-2">
<rect rx="6" ry="6" x="-26" y="-26" width="52" height="52" class="key"/>
<text x="0" y="0" class="key tap">Sft+3</text>
</g>
<g transform="translate(196, 52)" class="key keypos-3">
<rect rx="6" ry="6" x="-26" y="-26" width="52" height="52" class="key"/>
<text x="0" y="0" class="key tap">$</text>
</g>
<g transform="translate(364, 52)" class="key keypos-4">
<rect rx="6" ry="6" x="-26" y="-26" width="52" height="52" class="key"/>
<text x="0" y="0" class="key tap">%</text>
</g>
<g transform="translate(420, 44)" class="key keypos-5">
<rect rx="6" ry="6" x="-26" y="-26" width="52" height="52" class="key"/>
<text x="0" y="0" class="key tap">^</text>
</g>
<g transform="translate(476, 28)" class="key keypos-6">
<rect rx="6" ry="6" x="-26" y="-26" width="52" height="52" class="key"/>
<text x="0" y="0" class="key tap">&amp;</text>
</g>
<g transform="translate(532, 46)" class="key keypos-7">
<rect rx="6" ry="6" x="-26" y="-26" width="52" height="52" class="key"/>
<text x="0" y="0" class="key tap">*</text>
</g>
<g transform="translate(28, 101)" class="key keypos-8">
<rect rx="6" ry="6" x="-26" y="-26" width="52" height="52" class="key"/>
<text x="0" y="0" class="key tap">(</text>
</g>
<g transform="translate(84, 84)" class="key keypos-9">
<rect rx="6" ry="6" x="-26" y="-26" width="52" height="52" class="key"/>
<text x="0" y="0" class="key tap">)</text>
</g>
<g transform="translate(140, 100)" class="key keypos-10">
<rect rx="6" ry="6" x="-26" y="-26" width="52" height="52" class="key"/>
<text x="0" y="0" class="key tap">{</text>
</g>
<g transform="translate(196, 108)" class="key keypos-11">
<rect rx="6" ry="6" x="-26" y="-26" width="52" height="52" class="key"/>
<text x="0" y="0" class="key tap">[</text>
</g>
<g transform="translate(364, 108)" class="key keypos-12">
<rect rx="6" ry="6" x="-26" y="-26" width="52" height="52" class="key"/>
<text x="0" y="0" class="key tap">(</text>
</g>
<g transform="translate(420, 100)" class="key keypos-13">
<rect rx="6" ry="6" x="-26" y="-26" width="52" height="52" class="key"/>
<text x="0" y="0" class="key tap">-</text>
</g>
<g transform="translate(476, 84)" class="key keypos-14">
<rect rx="6" ry="6" x="-26" y="-26" width="52" height="52" class="key"/>
<text x="0" y="0" class="key tap">`</text>
</g>
<g transform="translate(532, 101)" class="key keypos-15">
<rect rx="6" ry="6" x="-26" y="-26" width="52" height="52" class="key"/>
<text x="0" y="0" class="key tap">#</text>
</g>
<g transform="translate(165, 165) rotate(15.0)" class="key trans keypos-16">
<rect rx="6" ry="6" x="-26" y="-26" width="52" height="52" class="key trans"/>
<text x="0" y="0" class="key trans tap">▽</text>
</g>
<g transform="translate(223, 189) rotate(30.0)" class="key held keypos-17">
<rect rx="6" ry="6" x="-26" y="-26" width="52" height="52" class="key held"/>
</g>
<g transform="translate(337, 189) rotate(-30.0)" class="key trans keypos-18">
<rect rx="6" ry="6" x="-26" y="-26" width="52" height="52" class="key trans"/>
<text x="0" y="0" class="key trans tap">▽</text>
</g>
<g transform="translate(395, 165) rotate(-15.0)" class="key trans keypos-19">
<rect rx="6" ry="6" x="-26" y="-26" width="52" height="52" class="key trans"/>
<text x="0" y="0" class="key trans tap">▽</text>
</g>
</g>
</g>
<g transform="translate(30, 1131)" class="layer-zmk">
<text x="0" y="28" class="label" id="zmk">zmk:</text>
<g transform="translate(0, 56)">
<g transform="translate(28, 46)" class="key keypos-0">
<rect rx="6" ry="6" x="-26" y="-26" width="52" height="52" class="key"/>
<text x="0" y="0" class="key tap">
<tspan x="0" dy="-0.6em">BT</tspan><tspan x="0" dy="1.2em">CLR</tspan>
</text>
</g>
<g transform="translate(84, 28)" class="key keypos-1">
<rect rx="6" ry="6" x="-26" y="-26" width="52" height="52" class="key"/>
<text x="0" y="0" class="key tap">
<tspan x="0" dy="-0.6em">OUT</tspan><tspan x="0" dy="1.2em">BLE</tspan>
</text>
</g>
<g transform="translate(140, 44)" class="key keypos-2">
<rect rx="6" ry="6" x="-26" y="-26" width="52" height="52" class="key"/>
<text x="0" y="0" class="key tap">
<tspan x="0" dy="-0.6em">OUT</tspan><tspan x="0" dy="1.2em">USB</tspan>
</text>
</g>
<g transform="translate(196, 52)" class="key keypos-3">
<rect rx="6" ry="6" x="-26" y="-26" width="52" height="52" class="key"/>
<text x="0" y="0" class="key tap"><tspan style="font-size: 70%">&amp;sys_reset</tspan></text>
</g>
<g transform="translate(364, 52)" class="key keypos-4">
<rect rx="6" ry="6" x="-26" y="-26" width="52" height="52" class="key"/>
<text x="0" y="0" class="key tap"><tspan style="font-size: 70%">&amp;sys_reset</tspan></text>
</g>
<g transform="translate(420, 44)" class="key keypos-5">
<rect rx="6" ry="6" x="-26" y="-26" width="52" height="52" class="key"/>
<text x="0" y="0" class="key tap"><tspan style="font-size: 64%">&amp;bootloader</tspan></text>
</g>
<g transform="translate(476, 28)" class="key keypos-6">
<rect rx="6" ry="6" x="-26" y="-26" width="52" height="52" class="key"/>
<text x="0" y="0" class="key tap"><tspan style="font-size: 70%">&amp;sys_reset</tspan></text>
</g>
<g transform="translate(532, 46)" class="key keypos-7">
<rect rx="6" ry="6" x="-26" y="-26" width="52" height="52" class="key"/>
<text x="0" y="0" class="key tap">
<tspan x="0" dy="-0.6em">OUT</tspan><tspan x="0" dy="1.2em">USB</tspan>
</text>
</g>
<g transform="translate(28, 101)" class="key held keypos-8">
<rect rx="6" ry="6" x="-26" y="-26" width="52" height="52" class="key held"/>
</g>
<g transform="translate(84, 84)" class="key keypos-9">
<rect rx="6" ry="6" x="-26" y="-26" width="52" height="52" class="key"/>
<text x="0" y="0" class="key tap">BT</text>
<text x="0" y="24" class="key hold">0</text>
</g>
<g transform="translate(140, 100)" class="key keypos-10">
<rect rx="6" ry="6" x="-26" y="-26" width="52" height="52" class="key"/>
<text x="0" y="0" class="key tap">BT</text>
<text x="0" y="24" class="key hold">1</text>
</g>
<g transform="translate(196, 108)" class="key keypos-11">
<rect rx="6" ry="6" x="-26" y="-26" width="52" height="52" class="key"/>
<text x="0" y="0" class="key tap">BT</text>
<text x="0" y="24" class="key hold">2</text>
</g>
<g transform="translate(364, 108)" class="key keypos-12">
<rect rx="6" ry="6" x="-26" y="-26" width="52" height="52" class="key"/>
<text x="0" y="0" class="key tap">BT</text>
<text x="0" y="24" class="key hold">3</text>
</g>
<g transform="translate(420, 100)" class="key keypos-13">
<rect rx="6" ry="6" x="-26" y="-26" width="52" height="52" class="key"/>
<text x="0" y="0" class="key tap">BT</text>
<text x="0" y="24" class="key hold">4</text>
</g>
<g transform="translate(476, 84)" class="key keypos-14">
<rect rx="6" ry="6" x="-26" y="-26" width="52" height="52" class="key"/>
<text x="0" y="0" class="key tap">BT</text>
<text x="0" y="24" class="key hold">5</text>
</g>
<g transform="translate(532, 101)" class="key trans keypos-15">
<rect rx="6" ry="6" x="-26" y="-26" width="52" height="52" class="key trans"/>
<text x="0" y="0" class="key trans tap">▽</text>
</g>
<g transform="translate(165, 165) rotate(15.0)" class="key trans keypos-16">
<rect rx="6" ry="6" x="-26" y="-26" width="52" height="52" class="key trans"/>
<text x="0" y="0" class="key trans tap">▽</text>
</g>
<g transform="translate(223, 189) rotate(30.0)" class="key trans keypos-17">
<rect rx="6" ry="6" x="-26" y="-26" width="52" height="52" class="key trans"/>
<text x="0" y="0" class="key trans tap">▽</text>
</g>
<g transform="translate(337, 189) rotate(-30.0)" class="key trans keypos-18">
<rect rx="6" ry="6" x="-26" y="-26" width="52" height="52" class="key trans"/>
<text x="0" y="0" class="key trans tap">▽</text>
</g>
<g transform="translate(395, 165) rotate(-15.0)" class="key trans keypos-19">
<rect rx="6" ry="6" x="-26" y="-26" width="52" height="52" class="key trans"/>
<text x="0" y="0" class="key trans tap">▽</text>
</g>
</g>
</g>
</svg>
